<svg width="51" height="44" viewBox="0 0 51 44" fill="none" xmlns="http://www.w3.org/2000/svg">
<path fill-rule="evenodd" clip-rule="evenodd" d="M14.018 10.4171C11.7989 10.4171 10 12.3892 10 14.8219V17.0243C10 19.4571 11.7989 21.4292 14.018 21.4292H17.2039L31.523 37.1268C32.8773 38.6115 34.9993 38.8419 36.5929 37.6772L39.2106 35.7641C41.3203 34.2222 41.6159 30.9499 39.823 28.9843L24.0631 11.7072C23.3096 10.8811 22.2876 10.4171 21.2219 10.4171H14.018ZM16.783 14.8219H21.2219L36.9818 32.099L34.3641 34.0121L21.0631 19.4306L21.0655 19.4305L20.9328 19.2877L20.0451 18.3145C19.9633 18.2249 19.8784 18.1395 19.7907 18.0586L16.783 14.8219Z" fill="#F8F8FC"/>
<path fill-rule="evenodd" clip-rule="evenodd" d="M35.5 21.4171C41.299 21.4171 46 16.716 46 10.9171C46 5.11806 41.299 0.417053 35.5 0.417053C29.701 0.417053 25 5.11806 25 10.9171C25 16.716 29.701 21.4171 35.5 21.4171Z" fill="#FFC832"/>
<path fill-rule="evenodd" clip-rule="evenodd" d="M35.4997 7.71715C36.3833 7.71715 37.0997 7.00081 37.0997 6.11715C37.0997 5.2335 36.3833 4.51715 35.4997 4.51715C34.616 4.51715 33.8997 5.2335 33.8997 6.11715C33.8997 7.00081 34.616 7.71715 35.4997 7.71715ZM34.3978 16.4571C34.7298 16.7891 35.1884 16.9552 35.7735 16.9552H36.8883C37.1097 16.9552 37.2204 16.8603 37.2204 16.6705V11.1913C37.2204 10.6062 37.0544 10.1476 36.7223 9.81556C36.3902 9.48348 35.9316 9.31744 35.3466 9.31744H34.2317C34.0103 9.31744 33.8997 9.41232 33.8997 9.60208V15.0813C33.8997 15.6664 34.0657 16.125 34.3978 16.4571Z" fill="#0F1A2E"/>
</svg>
