<svg width="51" height="44" viewBox="0 0 51 44" fill="none" xmlns="http://www.w3.org/2000/svg">
<path fill-rule="evenodd" clip-rule="evenodd" d="M14.018 10.4171C11.7989 10.4171 10 12.3892 10 14.8219V17.0243C10 19.4571 11.7989 21.4292 14.018 21.4292H17.2039L31.523 37.1268C32.8773 38.6115 34.9993 38.8419 36.5929 37.6772L39.2106 35.7641C41.3203 34.2222 41.6159 30.9499 39.823 28.9843L24.0631 11.7072C23.3096 10.8811 22.2876 10.4171 21.2219 10.4171H14.018ZM16.783 14.8219H21.2219L36.9818 32.099L34.3641 34.0121L21.0631 19.4306L21.0655 19.4305L20.9328 19.2877L20.0451 18.3145C19.9633 18.2249 19.8784 18.1395 19.7907 18.0586L16.783 14.8219Z" fill="#F8F8FC"/>
<path fill-rule="evenodd" clip-rule="evenodd" d="M35.5 21.4171C41.299 21.4171 46 16.716 46 10.9171C46 5.11806 41.299 0.417053 35.5 0.417053C29.701 0.417053 25 5.11806 25 10.9171C25 16.716 29.701 21.4171 35.5 21.4171Z" fill="#2DBECD"/>
<path fill-rule="evenodd" clip-rule="evenodd" d="M32.6187 8.00116C31.5091 9.11175 31.209 10.7666 31.8549 12.2168C32.025 12.5993 31.8534 13.0476 31.4707 13.2182C31.3704 13.2626 31.2656 13.2839 31.1626 13.2839C30.8719 13.2839 30.5949 13.1162 30.4693 12.834C29.5661 10.8051 29.9888 8.48735 31.546 6.92897C33.1052 5.37142 35.423 4.94895 37.4523 5.85175C37.456 5.85331 37.4592 5.85533 37.4624 5.85734C37.4647 5.85878 37.467 5.86022 37.4694 5.86148L37.2529 4.82216C37.1759 4.45286 37.4131 4.09127 37.7822 4.01445C38.152 3.93764 38.5129 4.17462 38.5896 4.54342L39.0587 6.79329C39.1117 7.04737 39.0161 7.30951 38.8116 7.46967L37.0097 8.88316C36.8846 8.9811 36.7365 9.02873 36.5884 9.02873C36.386 9.02873 36.1856 8.93867 36.0509 8.76727C35.818 8.47025 35.87 8.04157 36.1668 7.80879L36.8776 7.25081C36.8716 7.24855 36.8656 7.2468 36.8595 7.24504C36.8516 7.24276 36.8438 7.24047 36.836 7.23706C35.3846 6.59153 33.7288 6.89157 32.6187 8.00116ZM39.132 8.14758C39.5149 7.97752 39.9633 8.14976 40.1331 8.53265C41.0352 10.5623 40.612 12.8801 39.0555 14.4356C38.0417 15.45 36.7062 15.983 35.3378 15.983C34.642 15.983 33.9384 15.8434 33.2637 15.5608L33.4792 16.5951C33.556 16.9644 33.3187 17.3257 32.9497 17.403C32.9031 17.4124 32.856 17.4171 32.81 17.4171C32.4934 17.4171 32.2096 17.1957 32.1425 16.8733L31.6736 14.6238C31.6205 14.3701 31.7164 14.1079 31.9207 13.9478L33.7229 12.5343C34.0194 12.301 34.4486 12.3533 34.6812 12.6497C34.9145 12.9467 34.8622 13.3759 34.5658 13.6086L33.8562 14.1649C35.2851 14.7598 36.895 14.4514 37.9821 13.3643C39.0921 12.2549 39.3918 10.6 38.7471 9.14832C38.5767 8.7656 38.7491 8.31731 39.132 8.14758Z" fill="#0F1A2E"/>
</svg>
